<?xml version="1.0" encoding="UTF-8"?>
<svg version="1.1" xmlns="http://www.w3.org/2000/svg" width="500" height="500">
<path d="M0 0 C3.46251976 1.48877197 5.70085395 3.45381172 8.35333252 6.11282349 C9.21707489 6.97381653 10.08081726 7.83480957 10.97073364 8.72189331 C11.91970982 9.67794713 12.86858966 10.63409658 13.81738281 11.59033203 C14.82245647 12.59596998 15.82797103 13.60116746 16.83389282 14.60595703 C19.56120591 17.33269629 22.28230848 20.0655581 25.00234318 22.7995553 C27.84684044 25.65655487 30.69700229 28.50789188 33.54656982 31.35983276 C38.94076494 36.76024411 44.32984153 42.16573348 49.71710086 47.57306278 C55.8509762 53.72929264 61.99053138 59.87984461 68.13057184 66.02992463 C80.76004796 78.68030599 93.38236845 91.33780527 106 104 C99.70540517 111.40908434 99.70540517 111.40908434 96.72021484 114.47265625 C96.15297699 115.05595703 95.58573914 115.63925781 95.00131226 116.24023438 C92.46436891 118.82236677 89.92495673 121.4019202 87.37695312 123.97314453 C86.03337818 125.33343224 84.69521267 126.6990826 83.36230469 128.06982422 C81.42790438 130.058668 79.47785463 132.03084768 77.5234375 134 C76.92856537 134.6175415 76.33369324 135.23508301 75.72079468 135.87133789 C74.02099609 137.5625 74.02099609 137.5625 71 140 C66.27994258 139.56730641 63.64016343 136.03715636 60.48730469 132.82788086 C59.84298492 132.18399918 59.19866516 131.54011749 58.53482056 130.87672424 C56.40665093 128.74646442 54.2893045 126.60577495 52.171875 124.46484375 C50.69851042 122.98588406 49.22448214 121.50758529 47.74981689 120.02992249 C43.86996421 116.13861441 39.99920469 112.23838132 36.13024902 108.33624268 C32.18081054 104.35611852 28.22286791 100.38447135 24.265625 96.41210938 C16.50205388 88.61636182 8.74805948 80.81116235 1 73 C-3.67275578 76.89598185 -8.07541806 80.95082753 -12.33081055 85.29663086 C-12.92037537 85.89408112 -13.50994019 86.49153137 -14.11737061 87.10708618 C-15.38421857 88.39099976 -16.65000056 89.67596588 -17.91480064 90.9618969 C-20.60477568 93.69419953 -23.30430745 96.4169769 -26.00327015 99.14039707 C-31.01720202 104.19998161 -36.02706596 109.26344232 -41.02075195 114.34301758 C-44.50641366 117.88789544 -48.00401578 121.42058951 -51.50995827 124.94540596 C-52.84258382 126.28979977 -54.17065452 127.63872417 -55.49408531 128.99217033 C-57.33722095 130.87609013 -59.19514455 132.74410998 -61.05737305 134.60913086 C-61.87489799 135.45597694 -61.87489799 135.45597694 -62.7089386 136.31993103 C-66.42071045 139.99209164 -66.42071045 139.99209164 -69.15270996 140.02938843 C-71.25603549 138.85732616 -72.78194052 137.61306902 -74.49926758 135.9206543 C-75.49468315 134.94910652 -75.49468315 134.94910652 -76.51020813 133.95793152 C-77.21453476 133.2538063 -77.91886139 132.54968109 -78.64453125 131.82421875 C-79.37371262 131.10265091 -80.10289398 130.38108307 -80.85417175 129.63764954 C-82.3919172 128.11070505 -83.92570716 126.57976829 -85.45581055 125.04516602 C-87.80711354 122.6928887 -90.17892933 120.3627437 -92.55273438 118.03320312 C-94.04296546 116.54817721 -95.53194183 115.06189089 -97.01953125 113.57421875 C-97.73397903 112.87616623 -98.44842682 112.17811371 -99.18452454 111.45890808 C-99.83237411 110.80175308 -100.48022369 110.14459808 -101.14770508 109.4675293 C-101.72410233 108.89318649 -102.30049957 108.31884369 -102.8943634 107.72709656 C-104 106 -104 106 -104.02166748 104.1489563 C-102.48041638 100.90711751 -100.03296219 98.63377549 -97.50561523 96.14916992 C-96.93310532 95.57461563 -96.3605954 95.00006134 -95.77073669 94.40809631 C-93.87386599 92.50821521 -91.96645708 90.61930578 -90.05859375 88.73046875 C-88.73339004 87.40832451 -87.40877792 86.08558708 -86.08473206 84.76228333 C-83.30410296 81.98626021 -80.51863459 79.21522103 -77.72924805 76.44799805 C-74.17080439 72.91769879 -70.62096338 69.37891141 -67.07432461 65.83675671 C-63.67638775 62.44400616 -60.27379221 59.05594244 -56.87109375 55.66796875 C-56.2295529 55.02830862 -55.58801205 54.38864849 -54.92703056 53.72960472 C-43.14276481 41.98990499 -43.14276481 41.98990499 -36.81654358 36.59440613 C-33.23655772 33.45220164 -29.91731642 30.038879 -26.5625 26.66015625 C-25.79695801 25.89319931 -25.03141602 25.12624237 -24.24267578 24.33604431 C-21.82606803 21.91389119 -19.41298274 19.48826388 -17 17.0625 C-15.35049314 15.40797107 -13.70075571 13.75367198 -12.05078125 12.09960938 C-8.03118629 8.06905798 -4.01446831 4.03565728 0 0 Z " fill="#D5D5D5" transform="translate(196,198)"/>
<path d="M0 0 C4.16240748 1.63647131 6.9494405 4.67524874 10.03442383 7.79150391 C10.62848526 8.38366699 11.22254669 8.97583008 11.83460999 9.5859375 C13.79700314 11.54462707 15.7521016 13.51042586 17.70703125 15.4765625 C19.07423508 16.84495924 20.44180966 18.21298564 21.80973816 19.58065796 C24.67843251 22.45091685 27.54373641 25.32450379 30.40649414 28.20068359 C34.05953531 31.87064215 37.71905123 35.53405694 41.38094044 39.19518471 C44.20810347 42.0226211 47.03264137 44.85266781 49.85632896 47.68357468 C51.2036205 49.03402955 52.55150193 50.3838962 53.90000343 51.73314285 C66.13620085 63.98349874 66.13620085 63.98349874 71.46125793 70.23788452 C74.37451442 73.57404753 77.54093964 76.66302999 80.68359375 79.78125 C81.38396255 80.48020386 82.08433136 81.17915771 82.80592346 81.89929199 C85.01408458 84.10191539 87.22572037 86.30101081 89.4375 88.5 C90.94749814 90.00497508 92.4572659 91.51018135 93.96679688 93.015625 C97.64187641 96.67975829 101.32007356 100.3407348 105 104 C103.26798575 107.70442254 101.17198443 110.04517135 98.23828125 112.921875 C97.76939987 113.38555481 97.30051849 113.84923462 96.81742859 114.32696533 C95.32048402 115.80617025 93.81704251 117.27852701 92.3125 118.75 C83.59548942 127.2910733 83.59548942 127.2910733 75.42651367 136.35253906 C74.01740645 137.97989754 72.54001069 139.49690835 71 141 C68.21617957 139.72829615 66.17065422 138.41939717 64.0133667 136.25387573 C63.45253387 135.69579224 62.89170105 135.13770874 62.31387329 134.56271362 C61.71110565 133.95275543 61.10833801 133.34279724 60.48730469 132.71435547 C59.84298492 132.07032776 59.19866516 131.42630005 58.53482056 130.76275635 C56.40906302 128.63560693 54.29047492 126.50146388 52.171875 124.3671875 C50.69829219 122.88987407 49.22426682 121.41300196 47.74981689 119.93655396 C43.87219179 116.05129631 40.00061059 112.16006971 36.13024902 108.26757812 C32.17900061 104.29586322 28.22207739 100.329811 24.265625 96.36328125 C16.50484579 88.5810588 8.75043852 80.79252001 1 73 C-0.11829227 73.95248515 -1.23572573 74.90597867 -2.35279846 75.8598938 C-2.97516168 76.39076159 -3.59752489 76.92162937 -4.2387476 77.46858406 C-6.38171525 79.33190292 -8.40232519 81.28916492 -10.40234375 83.3046875 C-11.14677734 84.05234375 -11.89121094 84.8 -12.65820312 85.5703125 C-13.41037109 86.33085937 -14.16253906 87.09140625 -14.9375 87.875 C-15.71673828 88.65875 -16.49597656 89.4425 -17.29882812 90.25 C-19.20154085 92.16438581 -21.10186171 94.08108034 -23 96 C-26.04581486 94.63886987 -28.13839026 93.10669904 -30.48339844 90.74365234 C-31.47397247 89.75285172 -31.47397247 89.75285172 -32.48455811 88.74203491 C-33.18574768 88.03052277 -33.88693726 87.31901062 -34.609375 86.5859375 C-35.69958954 85.49147812 -35.69958954 85.49147812 -36.81182861 84.37490845 C-39.12929198 82.0462612 -41.4396995 79.71075174 -43.75 77.375 C-45.32115444 75.79381347 -46.89276371 74.21307875 -48.46484375 72.6328125 C-52.31518653 68.7604331 -56.15976117 64.88239829 -60 61 C-54.31978209 54.05896567 -47.94998244 47.82326094 -41.6015625 41.50390625 C-40.39922532 40.30343713 -39.19711095 39.10274482 -37.99520874 37.90184021 C-34.85090837 34.76133452 -31.70361521 31.62384519 -28.55566406 28.48699951 C-25.33605827 25.27767382 -22.11932679 22.06546995 -18.90234375 18.85351562 C-12.60435365 12.56620898 -6.30319435 6.28208894 0 0 Z " fill="#D5D5D5" transform="translate(303,162)"/>
<path d="M0 0 C7.48291572 6.15034169 7.48291572 6.15034169 10 10 C9.01 10.33 8.02 10.66 7 11 C5 9.1875 5 9.1875 3 7 C3 6.01 3 5.02 3 4 C2.01 3.67 1.02 3.34 0 3 C0 2.01 0 1.02 0 0 Z " fill="#C1C1C1" transform="translate(225,226)"/>
<path d="M0 0 C3.36720387 1.39332574 4.9859524 2.9789286 7 6 C5.35 6 3.7 6 2 6 C2 5.34 2 4.68 2 4 C0.35 4 -1.3 4 -3 4 C-2.01 2.68 -1.02 1.36 0 0 Z " fill="#C1C1C1" transform="translate(196,198)"/>
<path d="M0 0 C1.32 0.66 2.64 1.32 4 2 C0.8745041 4.64465038 -2.08788267 5.84414715 -6 7 C-4.02 4.69 -2.04 2.38 0 0 Z " fill="#BABABA" transform="translate(303,162)"/>
<path d="M0 0 C0.33 0.99 0.66 1.98 1 3 C0.01 3.33 -0.98 3.66 -2 4 C-3.22520264 7.00847418 -3.22520264 7.00847418 -4 10 C-4.66 9.67 -5.32 9.34 -6 9 C-5.52797514 4.75177626 -3.03344482 2.80010291 0 0 Z " fill="#898989" transform="translate(98,295)"/>
<path d="M0 0 C2.35964273 0.40683495 3.85934088 0.89814339 5.8125 2.3125 C6.4003125 3.1478125 6.4003125 3.1478125 7 4 C6.57421875 6.10546875 6.57421875 6.10546875 6 8 C4.99403703 7.0479279 3.99538437 6.08812654 3 5.125 C2.443125 4.59132812 1.88625 4.05765625 1.3125 3.5078125 C0 2 0 2 0 0 Z " fill="#C0C0C0" transform="translate(254,232)"/>
<path d="M0 0 C0.66 0.33 1.32 0.66 2 1 C2 1.66 2 2.32 2 3 C1.34 3 0.68 3 0 3 C-0.33 3.99 -0.66 4.98 -1 6 C-2.32 5.67 -3.64 5.34 -5 5 C-3.35 3.35 -1.7 1.7 0 0 Z " fill="#CACACA" transform="translate(288,177)"/>
<path d="M0 0 C1.65 1.65 3.3 3.3 5 5 C4.34 5.66 3.68 6.32 3 7 C3 6.34 3 5.68 3 5 C1.68 4.34 0.36 3.68 -1 3 C-0.67 2.01 -0.34 1.02 0 0 Z " fill="#C2C2C2" transform="translate(237,238)"/>
</svg>
